# xmcd
#
# Track frame offsets: 
#        150
#        14549
#        24343
#        35781
#        52199
#        67399
#        84509
#        97196
#        106792
#        124906
#        140262
#        154578
#
# Disc length: 2260 seconds
#
# Revision: 0
# Processed by: cddbd v1.5.2PL0 Copyright (c) Steve Scherf et al.
# Submitted via: ExactAudioCopy v0.99pb5
#
DISCID=a708d20c
DTITLE=Bobby Rey - Real Traditional Country Music
DYEAR=2002
DGENRE=Country
TTITLE0=If These Walls Could Talk
TTITLE1=I'm Comin' Home Tonight
TTITLE2=The Girl I've Looked For (All My Life)
TTITLE3=Mine To Lose Again
TTITLE4=My Memories And Me
TTITLE5=I Want Only Yiou
TTITLE6=Can't Hold Back The Bottle
TTITLE7=(I've Got The) Lovesick Blues
TTITLE8=Hit The Gate Runnin'
TTITLE9=When I Saw You
TTITLE10=Honky Tonk The Town Tonight
TTITLE11=She'll Go Home Tonight
EXTD=
EXTT0=
EXTT1=
EXTT2=
EXTT3=
EXTT4=
EXTT5=
EXTT6=
EXTT7=
EXTT8=
EXTT9=
EXTT10=
EXTT11=
PLAYORDER=
